<?xml version='1.0' encoding='utf-8'?>
<svg xmlns="http://www.w3.org/2000/svg" width="318.64" zoomAndPan="magnify" viewBox="-14.48 -14.48 318.64 237.07" height="237.07" preserveAspectRatio="xMidYMid meet" version="1.0"><defs><g /><clipPath id="c02d7a095a"><rect x="0" width="214" y="0" height="93" /></clipPath></defs><g transform="matrix(1, 0, 0, 1, 81, 137)"><g clip-path="url(#c02d7a095a)"><g fill="#f5f5ef" fill-opacity="1"><g transform="translate(0.280766, 69.668537)"><g><path d="M 42.140625 -23.964844 L 23.652344 -23.964844 L 23.652344 -16.246094 L 34.171875 -16.246094 C 33.238281 -9.773438 28.820312 -6.535156 23.34375 -6.535156 C 15.6875 -6.535156 11.390625 -12.824219 11.390625 -22.160156 C 11.390625 -31.246094 15.625 -37.410156 23.34375 -37.410156 C 28.757812 -37.410156 31.992188 -34.421875 32.804688 -29.753906 L 41.828125 -30.3125 C 40.335938 -39.648438 33.800781 -45.375 22.84375 -45.375 C 11.015625 -45.375 2.179688 -36.539062 2.179688 -22.160156 C 2.179688 -7.78125 11.140625 1.429688 22.347656 1.429688 C 28.257812 1.429688 32.492188 -1.183594 34.734375 -4.730469 L 36.164062 0 L 42.140625 0 Z M 42.140625 -23.964844 " /></g></g></g><g fill="#f5f5ef" fill-opacity="1"><g transform="translate(46.465626, 69.668537)"><g><path d="M 30.25 -21.289062 C 35.914062 -22.78125 38.714844 -26.453125 38.714844 -32.117188 C 38.714844 -38.40625 35.292969 -44.320312 24.710938 -44.320312 L 4.046875 -44.320312 L 4.046875 0 L 13.257812 0 L 13.257812 -17.179688 L 21.414062 -17.179688 C 26.207031 -17.179688 27.761719 -15.1875 28.132812 -11.390625 L 29.191406 0 L 38.652344 0 L 36.847656 -14.066406 C 36.476562 -16.992188 35.417969 -20.230469 30.25 -21.289062 Z M 13.257812 -36.601562 L 23.34375 -36.601562 C 27.886719 -36.601562 29.691406 -34.109375 29.691406 -30.875 C 29.691406 -27.449219 27.636719 -24.648438 22.097656 -24.648438 L 13.257812 -24.648438 Z M 13.257812 -36.601562 " /></g></g></g><g fill="#f5f5ef" fill-opacity="1"><g transform="translate(88.604636, 69.668537)"><g><path d="M 13.257812 -18.921875 L 33.984375 -18.921875 L 33.984375 -27.140625 L 13.257812 -27.140625 L 13.257812 -36.101562 L 36.289062 -36.101562 L 36.289062 -44.320312 L 4.046875 -44.320312 L 4.046875 0 L 36.910156 0 L 36.910156 -8.214844 L 13.257812 -8.214844 Z M 13.257812 -18.921875 " /></g></g></g><g fill="#f5f5ef" fill-opacity="1"><g transform="translate(128.00492, 69.668537)"><g><path d="M 22.96875 -30.5625 L 20.417969 -24.398438 L 17.988281 -30.5625 L 11.265625 -44.320312 L 1.121094 -44.320312 L 15.808594 -17.179688 L 15.808594 0 L 25.023438 0 L 25.023438 -17.179688 L 39.710938 -44.320312 L 29.816406 -44.320312 Z M 22.96875 -30.5625 " /></g></g></g><g fill="#f5f5ef" fill-opacity="1"><g transform="translate(168.836818, 69.668537)"><g><path d="M 30.625 -24.898438 C 30.625 -21.785156 30.6875 -18.609375 30.75 -15.5 C 29.316406 -17.988281 27.824219 -20.417969 26.265625 -22.90625 L 13.070312 -44.320312 L 4.046875 -44.320312 L 4.046875 0 L 13.257812 0 L 13.257812 -19.421875 C 13.257812 -22.46875 13.257812 -25.644531 13.195312 -28.757812 C 14.753906 -26.144531 16.308594 -23.527344 17.925781 -20.914062 L 30.8125 0 L 39.835938 0 L 39.835938 -44.320312 L 30.625 -44.320312 Z M 30.625 -24.898438 " /></g></g></g></g></g></svg>