<svg xmlns="http://www.w3.org/2000/svg" xmlns:xlink="http://www.w3.org/1999/xlink" width="500" zoomAndPan="magnify" viewBox="0 0 375 374.999991" height="500" preserveAspectRatio="xMidYMid meet" version="1.0"><defs><clipPath id="5bd8fba4da"><path d="M 106.570312 106.570312 L 268.429688 106.570312 L 268.429688 268.429688 L 106.570312 268.429688 Z M 106.570312 106.570312 " clip-rule="nonzero"/></clipPath><clipPath id="e2ed513474"><path d="M 187.5 106.570312 C 142.804688 106.570312 106.570312 142.804688 106.570312 187.5 C 106.570312 232.195312 142.804688 268.429688 187.5 268.429688 C 232.195312 268.429688 268.429688 232.195312 268.429688 187.5 C 268.429688 142.804688 232.195312 106.570312 187.5 106.570312 Z M 187.5 106.570312 " clip-rule="nonzero"/></clipPath><clipPath id="48ab2b7034"><path d="M 0.570312 0.570312 L 162.429688 0.570312 L 162.429688 162.429688 L 0.570312 162.429688 Z M 0.570312 0.570312 " clip-rule="nonzero"/></clipPath><clipPath id="4f72b00019"><path d="M 81.5 0.570312 C 36.804688 0.570312 0.570312 36.804688 0.570312 81.5 C 0.570312 126.195312 36.804688 162.429688 81.5 162.429688 C 126.195312 162.429688 162.429688 126.195312 162.429688 81.5 C 162.429688 36.804688 126.195312 0.570312 81.5 0.570312 Z M 81.5 0.570312 " clip-rule="nonzero"/></clipPath><clipPath id="a97fdf5377"><rect x="0" width="163" y="0" height="163"/></clipPath><clipPath id="f904af7f81"><path d="M 128.832031 175.386719 L 162.261719 175.386719 L 162.261719 208.886719 L 128.832031 208.886719 Z M 128.832031 175.386719 " clip-rule="nonzero"/></clipPath><clipPath id="65b65d538f"><path d="M 0.832031 0.386719 L 34.261719 0.386719 L 34.261719 33.886719 L 0.832031 33.886719 Z M 0.832031 0.386719 " clip-rule="nonzero"/></clipPath><clipPath id="0e72315dcb"><rect x="0" width="35" y="0" height="34"/></clipPath><clipPath id="061c1e4ef2"><path d="M 0.75 48 L 90.316406 48 L 90.316406 89.355469 L 0.75 89.355469 Z M 0.75 48 " clip-rule="nonzero"/></clipPath><clipPath id="1e2edae6fb"><path d="M 7.304688 21.109375 L 32.792969 21.109375 L 32.792969 48.742188 L 7.304688 48.742188 Z M 7.304688 21.109375 " clip-rule="nonzero"/></clipPath><clipPath id="69709210a6"><path d="M 17.261719 10.753906 L 40 10.753906 L 40 48.742188 L 17.261719 48.742188 Z M 17.261719 10.753906 " clip-rule="nonzero"/></clipPath><clipPath id="e842bc24fc"><path d="M 48.722656 12.347656 L 63.859375 12.347656 L 63.859375 48.742188 L 48.722656 48.742188 Z M 48.722656 12.347656 " clip-rule="nonzero"/></clipPath><clipPath id="a2256961f3"><path d="M 38 4.78125 L 47.53125 4.78125 L 47.53125 48.742188 L 38 48.742188 Z M 38 4.78125 " clip-rule="nonzero"/></clipPath><clipPath id="78daa70f6e"><path d="M 45.140625 1.195312 L 65 1.195312 L 65 48.742188 L 45.140625 48.742188 Z M 45.140625 1.195312 " clip-rule="nonzero"/></clipPath><clipPath id="0b10ddba88"><path d="M 55.097656 9.160156 L 69.832031 9.160156 L 69.832031 48.742188 L 55.097656 48.742188 Z M 55.097656 9.160156 " clip-rule="nonzero"/></clipPath><clipPath id="eb3f408d41"><path d="M 35.183594 5 L 59.476562 5 L 59.476562 48.742188 L 35.183594 48.742188 Z M 35.183594 5 " clip-rule="nonzero"/></clipPath><clipPath id="1d494e6fe5"><path d="M 58.28125 16 L 81.160156 16 L 81.160156 48.742188 L 58.28125 48.742188 Z M 58.28125 16 " clip-rule="nonzero"/></clipPath><clipPath id="5ce58e553e"><path d="M 31 13.542969 L 45.9375 13.542969 L 45.9375 48.742188 L 31 48.742188 Z M 31 13.542969 " clip-rule="nonzero"/></clipPath><clipPath id="efaa6a91c2"><rect x="0" width="91" y="0" height="90"/></clipPath></defs><rect x="-37.5" width="450" fill="#ffffff" y="-37.499999" height="449.999989" fill-opacity="1"/><rect x="-37.5" width="450" fill="#0b3d2e" y="-37.499999" height="449.999989" fill-opacity="1"/><g clip-path="url(#5bd8fba4da)"><g clip-path="url(#e2ed513474)"><g transform="matrix(1, 0, 0, 1, 106, 106)"><g clip-path="url(#a97fdf5377)"><g clip-path="url(#48ab2b7034)"><g clip-path="url(#4f72b00019)"><path fill="#f5f5ef" d="M 0.570312 0.570312 L 162.429688 0.570312 L 162.429688 162.429688 L 0.570312 162.429688 Z M 0.570312 0.570312 " fill-opacity="1" fill-rule="nonzero"/></g></g></g></g></g></g><g clip-path="url(#f904af7f81)"><g transform="matrix(1, 0, 0, 1, 128, 175)"><g clip-path="url(#0e72315dcb)"><g clip-path="url(#65b65d538f)"><path fill="#f5f5ef" d="M 0.832031 0.386719 L 34.261719 0.386719 L 34.261719 33.945312 L 0.832031 33.945312 Z M 0.832031 0.386719 " fill-opacity="1" fill-rule="nonzero"/></g></g></g></g><g transform="matrix(1, 0, 0, 1, 142, 142)"><g clip-path="url(#efaa6a91c2)"><g clip-path="url(#061c1e4ef2)"><path fill="#0b3d2e" d="M 81.351562 56.054688 L 9.644531 56.054688 C 14.078125 70.167969 26.605469 80.691406 41.792969 82.179688 L 41.792969 63.464844 L 49.203125 63.464844 C 49.203125 72.183594 49.203125 80.898438 49.203125 89.617188 C 47.980469 89.71875 46.746094 89.769531 45.496094 89.769531 C 21.953125 89.769531 2.636719 71.683594 0.679688 48.644531 C 30.558594 48.644531 60.4375 48.644531 90.316406 48.644531 C 88.675781 67.929688 74.875 83.742188 56.613281 88.382812 L 56.613281 80.6875 C 68.375 77.050781 77.664062 67.792969 81.351562 56.054688 " fill-opacity="1" fill-rule="evenodd"/></g><g clip-path="url(#1e2edae6fb)"><path fill="#0b3d2e" d="M 7.304688 21.464844 C 19.269531 32.261719 23.203125 48.992188 24.378906 49.089844 L 32.566406 49.089844 C 18.769531 26.558594 7.304688 21.464844 7.304688 21.464844 " fill-opacity="1" fill-rule="nonzero"/></g><g clip-path="url(#69709210a6)"><path fill="#2e7d47" d="M 30.5 49.089844 C 30.5 49.089844 25.476562 20.945312 17.613281 10.902344 C 17.613281 10.902344 31.289062 19.703125 39.984375 49.089844 L 30.5 49.089844 " fill-opacity="1" fill-rule="nonzero"/></g><g clip-path="url(#e842bc24fc)"><path fill="#0b3d2e" d="M 54.179688 49.089844 C 54.179688 49.089844 55.09375 27.003906 48.878906 12.691406 C 48.878906 12.691406 54.96875 17.984375 63.664062 47.371094 L 54.179688 49.089844 " fill-opacity="1" fill-rule="nonzero"/></g><g clip-path="url(#a2256961f3)"><path fill="#2e7d47" d="M 38.101562 49.089844 C 38.101562 49.089844 37.589844 23.605469 46.746094 4.828125 C 46.746094 4.828125 45.066406 30.519531 47.324219 49.089844 L 38.101562 49.089844 " fill-opacity="1" fill-rule="nonzero"/></g><g clip-path="url(#78daa70f6e)"><path fill="#9dc087" d="M 45.257812 49.089844 C 45.257812 49.089844 47.964844 20.078125 64.945312 1.195312 C 64.945312 1.195312 51.730469 33.371094 55.464844 49.089844 L 45.257812 49.089844 " fill-opacity="1" fill-rule="nonzero"/></g><g clip-path="url(#0b10ddba88)"><path fill="#2e7d47" d="M 55.378906 49.089844 C 55.378906 49.089844 56.597656 26.769531 69.71875 9.519531 C 69.71875 9.519531 60.90625 39.402344 63.316406 49.089844 L 55.378906 49.089844 " fill-opacity="1" fill-rule="nonzero"/></g><g clip-path="url(#eb3f408d41)"><path fill="#0b3d2e" d="M 59.457031 49.089844 L 52.203125 49.089844 C 52.203125 49.089844 45.3125 25.058594 35.371094 5.132812 C 35.371094 5.132812 53.625 24.292969 59.457031 49.089844 " fill-opacity="1" fill-rule="nonzero"/></g><g clip-path="url(#1d494e6fe5)"><path fill="#0b3d2e" d="M 58.378906 49.089844 L 65.703125 49.089844 C 65.703125 49.089844 64.136719 40.550781 81.160156 16.121094 C 81.160156 16.121094 60.507812 28.113281 58.378906 49.089844 " fill-opacity="1" fill-rule="nonzero"/></g><g clip-path="url(#5ce58e553e)"><path fill="#9dc087" d="M 36.367188 49.089844 C 36.367188 49.089844 37.285156 28.21875 31.066406 13.914062 C 31.066406 13.914062 37.160156 19.707031 45.855469 49.089844 L 36.367188 49.089844 " fill-opacity="1" fill-rule="nonzero"/></g></g></g></svg>