<svg xmlns="http://www.w3.org/2000/svg" xmlns:xlink="http://www.w3.org/1999/xlink" width="500" zoomAndPan="magnify" viewBox="0 0 375 374.999991" height="500" preserveAspectRatio="xMidYMid meet" version="1.0"><defs><g/><clipPath id="28fa61568d"><path d="M 47.8125 178 L 108.5625 178 L 108.5625 205.996094 L 47.8125 205.996094 Z M 47.8125 178 " clip-rule="nonzero"/></clipPath><clipPath id="a1d1f2e9d1"><path d="M 52.257812 159.707031 L 69.546875 159.707031 L 69.546875 178.449219 L 52.257812 178.449219 Z M 52.257812 159.707031 " clip-rule="nonzero"/></clipPath><clipPath id="3878760a56"><path d="M 59.011719 152.683594 L 74.679688 152.683594 L 74.679688 178.449219 L 59.011719 178.449219 Z M 59.011719 152.683594 " clip-rule="nonzero"/></clipPath><clipPath id="6d6b221229"><path d="M 80.351562 153.761719 L 90.617188 153.761719 L 90.617188 178.449219 L 80.351562 178.449219 Z M 80.351562 153.761719 " clip-rule="nonzero"/></clipPath><clipPath id="ef44b2755b"><path d="M 73.058594 148.632812 L 79.539062 148.632812 L 79.539062 178.449219 L 73.058594 178.449219 Z M 73.058594 148.632812 " clip-rule="nonzero"/></clipPath><clipPath id="ceba30698d"><path d="M 78 146.199219 L 91.425781 146.199219 L 91.425781 178.449219 L 78 178.449219 Z M 78 146.199219 " clip-rule="nonzero"/></clipPath><clipPath id="f0120e2b91"><path d="M 84.671875 151.601562 L 94.667969 151.601562 L 94.667969 178.449219 L 84.671875 178.449219 Z M 84.671875 151.601562 " clip-rule="nonzero"/></clipPath><clipPath id="61b09133a4"><path d="M 71.167969 148.632812 L 87.644531 148.632812 L 87.644531 178.449219 L 71.167969 178.449219 Z M 71.167969 148.632812 " clip-rule="nonzero"/></clipPath><clipPath id="52989de7ae"><path d="M 86.835938 156.195312 L 102.351562 156.195312 L 102.351562 178.449219 L 86.835938 178.449219 Z M 86.835938 156.195312 " clip-rule="nonzero"/></clipPath><clipPath id="4d21fd8c2c"><path d="M 68.195312 154.574219 L 78.460938 154.574219 L 78.460938 178.449219 L 68.195312 178.449219 Z M 68.195312 154.574219 " clip-rule="nonzero"/></clipPath><clipPath id="2e2446f1cd"><rect x="0" width="214" y="0" height="93"/></clipPath></defs><rect x="-37.5" width="450" fill="#ffffff" y="-37.499999" height="449.999989" fill-opacity="1"/><rect x="-37.5" width="450" fill="#0b3d2e" y="-37.499999" height="449.999989" fill-opacity="1"/><g clip-path="url(#28fa61568d)"><path fill="#f5f5ef" d="M 102.480469 183.410156 L 53.84375 183.410156 C 56.851562 192.980469 65.347656 200.121094 75.648438 201.128906 L 75.648438 188.433594 L 80.675781 188.433594 C 80.675781 194.347656 80.675781 200.261719 80.675781 206.171875 C 79.847656 206.242188 79.007812 206.277344 78.164062 206.277344 C 62.191406 206.277344 49.089844 194.007812 47.765625 178.382812 C 68.03125 178.382812 88.296875 178.382812 108.5625 178.382812 C 107.449219 191.460938 98.089844 202.1875 85.703125 205.335938 L 85.703125 200.117188 C 93.679688 197.648438 99.980469 191.371094 102.480469 183.410156 " fill-opacity="1" fill-rule="evenodd"/></g><g clip-path="url(#a1d1f2e9d1)"><path fill="#f5f5ef" d="M 52.257812 159.949219 C 60.375 167.269531 63.042969 178.621094 63.835938 178.6875 L 69.390625 178.6875 C 60.03125 163.402344 52.257812 159.949219 52.257812 159.949219 " fill-opacity="1" fill-rule="nonzero"/></g><g clip-path="url(#3878760a56)"><path fill="#2e7d47" d="M 67.992188 178.6875 C 67.992188 178.6875 64.582031 159.59375 59.25 152.78125 C 59.25 152.78125 68.527344 158.75 74.425781 178.6875 L 67.992188 178.6875 " fill-opacity="1" fill-rule="nonzero"/></g><g clip-path="url(#6d6b221229)"><path fill="#f5f5ef" d="M 84.050781 178.6875 C 84.050781 178.6875 84.671875 163.707031 80.457031 153.996094 C 80.457031 153.996094 84.585938 157.585938 90.484375 177.519531 L 84.050781 178.6875 " fill-opacity="1" fill-rule="nonzero"/></g><g clip-path="url(#ef44b2755b)"><path fill="#2e7d47" d="M 73.144531 178.6875 C 73.144531 178.6875 72.800781 161.398438 79.011719 148.664062 C 79.011719 148.664062 77.871094 166.089844 79.398438 178.6875 L 73.144531 178.6875 " fill-opacity="1" fill-rule="nonzero"/></g><g clip-path="url(#ceba30698d)"><path fill="#9dc087" d="M 78 178.6875 C 78 178.6875 79.835938 159.007812 91.355469 146.199219 C 91.355469 146.199219 82.390625 168.023438 84.921875 178.6875 L 78 178.6875 " fill-opacity="1" fill-rule="nonzero"/></g><g clip-path="url(#f0120e2b91)"><path fill="#2e7d47" d="M 84.863281 178.6875 C 84.863281 178.6875 85.691406 163.546875 94.589844 151.84375 C 94.589844 151.84375 88.613281 172.113281 90.25 178.6875 L 84.863281 178.6875 " fill-opacity="1" fill-rule="nonzero"/></g><g clip-path="url(#61b09133a4)"><path fill="#f5f5ef" d="M 87.628906 178.6875 L 82.710938 178.6875 C 82.710938 178.6875 78.035156 162.386719 71.292969 148.871094 C 71.292969 148.871094 83.675781 161.863281 87.628906 178.6875 " fill-opacity="1" fill-rule="nonzero"/></g><g clip-path="url(#52989de7ae)"><path fill="#f5f5ef" d="M 86.902344 178.6875 L 91.867188 178.6875 C 91.867188 178.6875 90.804688 172.890625 102.351562 156.324219 C 102.351562 156.324219 88.34375 164.457031 86.902344 178.6875 " fill-opacity="1" fill-rule="nonzero"/></g><g clip-path="url(#4d21fd8c2c)"><path fill="#9dc087" d="M 71.972656 178.6875 C 71.972656 178.6875 72.589844 164.53125 68.375 154.824219 C 68.375 154.824219 72.507812 158.753906 78.402344 178.6875 L 71.972656 178.6875 " fill-opacity="1" fill-rule="nonzero"/></g><g transform="matrix(1, 0, 0, 1, 114, 137)"><g clip-path="url(#2e2446f1cd)"><g fill="#f5f5ef" fill-opacity="1"><g transform="translate(0.79989, 69.668551)"><g><path d="M 42.140625 -23.964844 L 23.652344 -23.964844 L 23.652344 -16.246094 L 34.171875 -16.246094 C 33.238281 -9.773438 28.820312 -6.535156 23.34375 -6.535156 C 15.6875 -6.535156 11.390625 -12.824219 11.390625 -22.160156 C 11.390625 -31.246094 15.625 -37.410156 23.34375 -37.410156 C 28.757812 -37.410156 31.992188 -34.421875 32.804688 -29.753906 L 41.828125 -30.3125 C 40.335938 -39.648438 33.800781 -45.375 22.84375 -45.375 C 11.015625 -45.375 2.179688 -36.539062 2.179688 -22.160156 C 2.179688 -7.78125 11.140625 1.429688 22.347656 1.429688 C 28.257812 1.429688 32.492188 -1.183594 34.734375 -4.730469 L 36.164062 0 L 42.140625 0 Z M 42.140625 -23.964844 "/></g></g></g><g fill="#f5f5ef" fill-opacity="1"><g transform="translate(46.98475, 69.668551)"><g><path d="M 30.25 -21.289062 C 35.914062 -22.78125 38.714844 -26.453125 38.714844 -32.117188 C 38.714844 -38.40625 35.292969 -44.320312 24.710938 -44.320312 L 4.046875 -44.320312 L 4.046875 0 L 13.257812 0 L 13.257812 -17.179688 L 21.414062 -17.179688 C 26.207031 -17.179688 27.761719 -15.1875 28.132812 -11.390625 L 29.191406 0 L 38.652344 0 L 36.847656 -14.066406 C 36.476562 -16.992188 35.417969 -20.230469 30.25 -21.289062 Z M 13.257812 -36.601562 L 23.34375 -36.601562 C 27.886719 -36.601562 29.691406 -34.109375 29.691406 -30.875 C 29.691406 -27.449219 27.636719 -24.648438 22.097656 -24.648438 L 13.257812 -24.648438 Z M 13.257812 -36.601562 "/></g></g></g><g fill="#f5f5ef" fill-opacity="1"><g transform="translate(89.12376, 69.668551)"><g><path d="M 13.257812 -18.921875 L 33.984375 -18.921875 L 33.984375 -27.140625 L 13.257812 -27.140625 L 13.257812 -36.101562 L 36.289062 -36.101562 L 36.289062 -44.320312 L 4.046875 -44.320312 L 4.046875 0 L 36.910156 0 L 36.910156 -8.214844 L 13.257812 -8.214844 Z M 13.257812 -18.921875 "/></g></g></g><g fill="#f5f5ef" fill-opacity="1"><g transform="translate(128.524044, 69.668551)"><g><path d="M 22.96875 -30.5625 L 20.417969 -24.398438 L 17.988281 -30.5625 L 11.265625 -44.320312 L 1.121094 -44.320312 L 15.808594 -17.179688 L 15.808594 0 L 25.023438 0 L 25.023438 -17.179688 L 39.710938 -44.320312 L 29.816406 -44.320312 Z M 22.96875 -30.5625 "/></g></g></g><g fill="#f5f5ef" fill-opacity="1"><g transform="translate(169.355942, 69.668551)"><g><path d="M 30.625 -24.898438 C 30.625 -21.785156 30.6875 -18.609375 30.75 -15.5 C 29.316406 -17.988281 27.824219 -20.417969 26.265625 -22.90625 L 13.070312 -44.320312 L 4.046875 -44.320312 L 4.046875 0 L 13.257812 0 L 13.257812 -19.421875 C 13.257812 -22.46875 13.257812 -25.644531 13.195312 -28.757812 C 14.753906 -26.144531 16.308594 -23.527344 17.925781 -20.914062 L 30.8125 0 L 39.835938 0 L 39.835938 -44.320312 L 30.625 -44.320312 Z M 30.625 -24.898438 "/></g></g></g></g></g><g fill="#9dc087" fill-opacity="1"><g transform="translate(87.715714, 224.953579)"><g><path d="M 5.96875 -5.03125 C 6.320312 -4.96875 6.644531 -4.816406 6.9375 -4.578125 C 7.226562 -4.347656 7.457031 -4.0625 7.625 -3.71875 C 7.800781 -3.375 7.890625 -3.007812 7.890625 -2.625 C 7.890625 -2.125 7.765625 -1.675781 7.515625 -1.28125 C 7.265625 -0.882812 6.898438 -0.570312 6.421875 -0.34375 C 5.941406 -0.113281 5.375 0 4.71875 0 L 1.078125 0 L 1.078125 -9.765625 L 4.578125 -9.765625 C 5.242188 -9.765625 5.804688 -9.648438 6.265625 -9.421875 C 6.734375 -9.203125 7.082031 -8.90625 7.3125 -8.53125 C 7.550781 -8.164062 7.671875 -7.75 7.671875 -7.28125 C 7.671875 -6.695312 7.515625 -6.21875 7.203125 -5.84375 C 6.890625 -5.46875 6.476562 -5.195312 5.96875 -5.03125 Z M 2.359375 -5.546875 L 4.5 -5.546875 C 5.09375 -5.546875 5.550781 -5.6875 5.875 -5.96875 C 6.207031 -6.25 6.375 -6.632812 6.375 -7.125 C 6.375 -7.625 6.207031 -8.007812 5.875 -8.28125 C 5.550781 -8.5625 5.082031 -8.703125 4.46875 -8.703125 L 2.359375 -8.703125 Z M 4.609375 -1.046875 C 5.242188 -1.046875 5.738281 -1.195312 6.09375 -1.5 C 6.445312 -1.800781 6.625 -2.21875 6.625 -2.75 C 6.625 -3.289062 6.4375 -3.71875 6.0625 -4.03125 C 5.6875 -4.34375 5.1875 -4.5 4.5625 -4.5 L 2.359375 -4.5 L 2.359375 -1.046875 Z M 4.609375 -1.046875 "/></g></g></g><g fill="#9dc087" fill-opacity="1"><g transform="translate(96.292923, 224.953579)"><g><path d="M 7.875 -7.671875 L 7.875 0 L 6.609375 0 L 6.609375 -1.140625 C 6.367188 -0.742188 6.03125 -0.4375 5.59375 -0.21875 C 5.15625 0 4.675781 0.109375 4.15625 0.109375 C 3.5625 0.109375 3.023438 -0.0078125 2.546875 -0.25 C 2.066406 -0.5 1.691406 -0.867188 1.421875 -1.359375 C 1.148438 -1.859375 1.015625 -2.460938 1.015625 -3.171875 L 1.015625 -7.671875 L 2.265625 -7.671875 L 2.265625 -3.34375 C 2.265625 -2.59375 2.457031 -2.015625 2.84375 -1.609375 C 3.226562 -1.203125 3.75 -1 4.40625 -1 C 5.09375 -1 5.628906 -1.207031 6.015625 -1.625 C 6.410156 -2.039062 6.609375 -2.648438 6.609375 -3.453125 L 6.609375 -7.671875 Z M 7.875 -7.671875 "/></g></g></g><g fill="#9dc087" fill-opacity="1"><g transform="translate(105.247924, 224.953579)"><g><path d="M 1.734375 -8.921875 C 1.492188 -8.921875 1.289062 -9.003906 1.125 -9.171875 C 0.957031 -9.335938 0.875 -9.539062 0.875 -9.78125 C 0.875 -10.03125 0.957031 -10.238281 1.125 -10.40625 C 1.289062 -10.570312 1.492188 -10.65625 1.734375 -10.65625 C 1.972656 -10.65625 2.171875 -10.570312 2.328125 -10.40625 C 2.492188 -10.238281 2.578125 -10.03125 2.578125 -9.78125 C 2.578125 -9.539062 2.492188 -9.335938 2.328125 -9.171875 C 2.171875 -9.003906 1.972656 -8.921875 1.734375 -8.921875 Z M 2.359375 -7.671875 L 2.359375 0 L 1.078125 0 L 1.078125 -7.671875 Z M 2.359375 -7.671875 "/></g></g></g><g fill="#9dc087" fill-opacity="1"><g transform="translate(108.689997, 224.953579)"><g><path d="M 2.359375 -10.359375 L 2.359375 0 L 1.078125 0 L 1.078125 -10.359375 Z M 2.359375 -10.359375 "/></g></g></g><g fill="#9dc087" fill-opacity="1"><g transform="translate(112.132071, 224.953579)"><g><path d="M 0.609375 -3.859375 C 0.609375 -4.648438 0.765625 -5.335938 1.078125 -5.921875 C 1.390625 -6.515625 1.820312 -6.972656 2.375 -7.296875 C 2.9375 -7.628906 3.5625 -7.796875 4.25 -7.796875 C 4.851562 -7.796875 5.410156 -7.65625 5.921875 -7.375 C 6.429688 -7.101562 6.820312 -6.742188 7.09375 -6.296875 L 7.09375 -10.359375 L 8.390625 -10.359375 L 8.390625 0 L 7.09375 0 L 7.09375 -1.4375 C 6.84375 -0.976562 6.46875 -0.601562 5.96875 -0.3125 C 5.476562 -0.0195312 4.898438 0.125 4.234375 0.125 C 3.554688 0.125 2.9375 -0.0390625 2.375 -0.375 C 1.820312 -0.707031 1.390625 -1.175781 1.078125 -1.78125 C 0.765625 -2.394531 0.609375 -3.085938 0.609375 -3.859375 Z M 7.09375 -3.84375 C 7.09375 -4.425781 6.972656 -4.929688 6.734375 -5.359375 C 6.503906 -5.785156 6.191406 -6.113281 5.796875 -6.34375 C 5.398438 -6.570312 4.96875 -6.6875 4.5 -6.6875 C 4.019531 -6.6875 3.582031 -6.570312 3.1875 -6.34375 C 2.800781 -6.125 2.488281 -5.800781 2.25 -5.375 C 2.019531 -4.945312 1.90625 -4.441406 1.90625 -3.859375 C 1.90625 -3.273438 2.019531 -2.765625 2.25 -2.328125 C 2.488281 -1.898438 2.800781 -1.570312 3.1875 -1.34375 C 3.582031 -1.113281 4.019531 -1 4.5 -1 C 4.96875 -1 5.398438 -1.113281 5.796875 -1.34375 C 6.191406 -1.570312 6.503906 -1.898438 6.734375 -2.328125 C 6.972656 -2.765625 7.09375 -3.269531 7.09375 -3.84375 Z M 7.09375 -3.84375 "/></g></g></g><g fill="#9dc087" fill-opacity="1"><g transform="translate(121.590795, 224.953579)"><g><path d="M 1.734375 -8.921875 C 1.492188 -8.921875 1.289062 -9.003906 1.125 -9.171875 C 0.957031 -9.335938 0.875 -9.539062 0.875 -9.78125 C 0.875 -10.03125 0.957031 -10.238281 1.125 -10.40625 C 1.289062 -10.570312 1.492188 -10.65625 1.734375 -10.65625 C 1.972656 -10.65625 2.171875 -10.570312 2.328125 -10.40625 C 2.492188 -10.238281 2.578125 -10.03125 2.578125 -9.78125 C 2.578125 -9.539062 2.492188 -9.335938 2.328125 -9.171875 C 2.171875 -9.003906 1.972656 -8.921875 1.734375 -8.921875 Z M 2.359375 -7.671875 L 2.359375 0 L 1.078125 0 L 1.078125 -7.671875 Z M 2.359375 -7.671875 "/></g></g></g><g fill="#9dc087" fill-opacity="1"><g transform="translate(125.032869, 224.953579)"><g><path d="M 4.8125 -7.8125 C 5.75 -7.8125 6.503906 -7.53125 7.078125 -6.96875 C 7.660156 -6.40625 7.953125 -5.585938 7.953125 -4.515625 L 7.953125 0 L 6.6875 0 L 6.6875 -4.34375 C 6.6875 -5.101562 6.492188 -5.6875 6.109375 -6.09375 C 5.734375 -6.5 5.210938 -6.703125 4.546875 -6.703125 C 3.878906 -6.703125 3.347656 -6.492188 2.953125 -6.078125 C 2.554688 -5.660156 2.359375 -5.046875 2.359375 -4.234375 L 2.359375 0 L 1.078125 0 L 1.078125 -7.671875 L 2.359375 -7.671875 L 2.359375 -6.578125 C 2.609375 -6.972656 2.945312 -7.273438 3.375 -7.484375 C 3.8125 -7.703125 4.289062 -7.8125 4.8125 -7.8125 Z M 4.8125 -7.8125 "/></g></g></g><g fill="#9dc087" fill-opacity="1"><g transform="translate(133.98787, 224.953579)"><g><path d="M 4.234375 -7.796875 C 4.898438 -7.796875 5.484375 -7.648438 5.984375 -7.359375 C 6.484375 -7.078125 6.851562 -6.710938 7.09375 -6.265625 L 7.09375 -7.671875 L 8.390625 -7.671875 L 8.390625 0.171875 C 8.390625 0.867188 8.238281 1.488281 7.9375 2.03125 C 7.632812 2.582031 7.207031 3.007812 6.65625 3.3125 C 6.101562 3.625 5.457031 3.78125 4.71875 3.78125 C 3.707031 3.78125 2.863281 3.539062 2.1875 3.0625 C 1.519531 2.59375 1.128906 1.945312 1.015625 1.125 L 2.265625 1.125 C 2.410156 1.582031 2.703125 1.953125 3.140625 2.234375 C 3.578125 2.523438 4.101562 2.671875 4.71875 2.671875 C 5.414062 2.671875 5.984375 2.453125 6.421875 2.015625 C 6.867188 1.578125 7.09375 0.960938 7.09375 0.171875 L 7.09375 -1.4375 C 6.84375 -0.988281 6.46875 -0.613281 5.96875 -0.3125 C 5.476562 -0.0195312 4.898438 0.125 4.234375 0.125 C 3.554688 0.125 2.9375 -0.0390625 2.375 -0.375 C 1.820312 -0.707031 1.390625 -1.175781 1.078125 -1.78125 C 0.765625 -2.394531 0.609375 -3.085938 0.609375 -3.859375 C 0.609375 -4.648438 0.765625 -5.335938 1.078125 -5.921875 C 1.390625 -6.515625 1.820312 -6.972656 2.375 -7.296875 C 2.9375 -7.628906 3.554688 -7.796875 4.234375 -7.796875 Z M 7.09375 -3.84375 C 7.09375 -4.425781 6.972656 -4.929688 6.734375 -5.359375 C 6.503906 -5.785156 6.191406 -6.113281 5.796875 -6.34375 C 5.398438 -6.570312 4.96875 -6.6875 4.5 -6.6875 C 4.019531 -6.6875 3.582031 -6.570312 3.1875 -6.34375 C 2.800781 -6.125 2.488281 -5.800781 2.25 -5.375 C 2.019531 -4.945312 1.90625 -4.441406 1.90625 -3.859375 C 1.90625 -3.273438 2.019531 -2.765625 2.25 -2.328125 C 2.488281 -1.898438 2.800781 -1.570312 3.1875 -1.34375 C 3.582031 -1.113281 4.019531 -1 4.5 -1 C 4.96875 -1 5.398438 -1.113281 5.796875 -1.34375 C 6.191406 -1.570312 6.503906 -1.898438 6.734375 -2.328125 C 6.972656 -2.765625 7.09375 -3.269531 7.09375 -3.84375 Z M 7.09375 -3.84375 "/></g></g></g><g fill="#9dc087" fill-opacity="1"><g transform="translate(143.446595, 224.953579)"><g/></g></g><g fill="#9dc087" fill-opacity="1"><g transform="translate(147.182507, 224.953579)"><g><path d="M 0.609375 -3.859375 C 0.609375 -4.648438 0.765625 -5.335938 1.078125 -5.921875 C 1.390625 -6.515625 1.820312 -6.972656 2.375 -7.296875 C 2.9375 -7.628906 3.554688 -7.796875 4.234375 -7.796875 C 4.910156 -7.796875 5.492188 -7.648438 5.984375 -7.359375 C 6.484375 -7.078125 6.851562 -6.710938 7.09375 -6.265625 L 7.09375 -7.671875 L 8.390625 -7.671875 L 8.390625 0 L 7.09375 0 L 7.09375 -1.421875 C 6.84375 -0.972656 6.46875 -0.601562 5.96875 -0.3125 C 5.46875 -0.0195312 4.890625 0.125 4.234375 0.125 C 3.546875 0.125 2.925781 -0.0390625 2.375 -0.375 C 1.820312 -0.707031 1.390625 -1.175781 1.078125 -1.78125 C 0.765625 -2.394531 0.609375 -3.085938 0.609375 -3.859375 Z M 7.09375 -3.84375 C 7.09375 -4.425781 6.972656 -4.929688 6.734375 -5.359375 C 6.503906 -5.785156 6.191406 -6.113281 5.796875 -6.34375 C 5.398438 -6.570312 4.96875 -6.6875 4.5 -6.6875 C 4.019531 -6.6875 3.582031 -6.570312 3.1875 -6.34375 C 2.800781 -6.125 2.488281 -5.800781 2.25 -5.375 C 2.019531 -4.945312 1.90625 -4.441406 1.90625 -3.859375 C 1.90625 -3.273438 2.019531 -2.765625 2.25 -2.328125 C 2.488281 -1.898438 2.800781 -1.570312 3.1875 -1.34375 C 3.582031 -1.113281 4.019531 -1 4.5 -1 C 4.96875 -1 5.398438 -1.113281 5.796875 -1.34375 C 6.191406 -1.570312 6.503906 -1.898438 6.734375 -2.328125 C 6.972656 -2.765625 7.09375 -3.269531 7.09375 -3.84375 Z M 7.09375 -3.84375 "/></g></g></g><g fill="#9dc087" fill-opacity="1"><g transform="translate(156.641231, 224.953579)"><g/></g></g><g fill="#9dc087" fill-opacity="1"><g transform="translate(160.377143, 224.953579)"><g><path d="M 4.234375 -7.796875 C 4.898438 -7.796875 5.484375 -7.648438 5.984375 -7.359375 C 6.484375 -7.078125 6.851562 -6.710938 7.09375 -6.265625 L 7.09375 -7.671875 L 8.390625 -7.671875 L 8.390625 0.171875 C 8.390625 0.867188 8.238281 1.488281 7.9375 2.03125 C 7.632812 2.582031 7.207031 3.007812 6.65625 3.3125 C 6.101562 3.625 5.457031 3.78125 4.71875 3.78125 C 3.707031 3.78125 2.863281 3.539062 2.1875 3.0625 C 1.519531 2.59375 1.128906 1.945312 1.015625 1.125 L 2.265625 1.125 C 2.410156 1.582031 2.703125 1.953125 3.140625 2.234375 C 3.578125 2.523438 4.101562 2.671875 4.71875 2.671875 C 5.414062 2.671875 5.984375 2.453125 6.421875 2.015625 C 6.867188 1.578125 7.09375 0.960938 7.09375 0.171875 L 7.09375 -1.4375 C 6.84375 -0.988281 6.46875 -0.613281 5.96875 -0.3125 C 5.476562 -0.0195312 4.898438 0.125 4.234375 0.125 C 3.554688 0.125 2.9375 -0.0390625 2.375 -0.375 C 1.820312 -0.707031 1.390625 -1.175781 1.078125 -1.78125 C 0.765625 -2.394531 0.609375 -3.085938 0.609375 -3.859375 C 0.609375 -4.648438 0.765625 -5.335938 1.078125 -5.921875 C 1.390625 -6.515625 1.820312 -6.972656 2.375 -7.296875 C 2.9375 -7.628906 3.554688 -7.796875 4.234375 -7.796875 Z M 7.09375 -3.84375 C 7.09375 -4.425781 6.972656 -4.929688 6.734375 -5.359375 C 6.503906 -5.785156 6.191406 -6.113281 5.796875 -6.34375 C 5.398438 -6.570312 4.96875 -6.6875 4.5 -6.6875 C 4.019531 -6.6875 3.582031 -6.570312 3.1875 -6.34375 C 2.800781 -6.125 2.488281 -5.800781 2.25 -5.375 C 2.019531 -4.945312 1.90625 -4.441406 1.90625 -3.859375 C 1.90625 -3.273438 2.019531 -2.765625 2.25 -2.328125 C 2.488281 -1.898438 2.800781 -1.570312 3.1875 -1.34375 C 3.582031 -1.113281 4.019531 -1 4.5 -1 C 4.96875 -1 5.398438 -1.113281 5.796875 -1.34375 C 6.191406 -1.570312 6.503906 -1.898438 6.734375 -2.328125 C 6.972656 -2.765625 7.09375 -3.269531 7.09375 -3.84375 Z M 7.09375 -3.84375 "/></g></g></g><g fill="#9dc087" fill-opacity="1"><g transform="translate(169.835867, 224.953579)"><g><path d="M 2.359375 -6.421875 C 2.578125 -6.859375 2.894531 -7.195312 3.3125 -7.4375 C 3.726562 -7.6875 4.234375 -7.8125 4.828125 -7.8125 L 4.828125 -6.5 L 4.5 -6.5 C 3.070312 -6.5 2.359375 -5.722656 2.359375 -4.171875 L 2.359375 0 L 1.078125 0 L 1.078125 -7.671875 L 2.359375 -7.671875 Z M 2.359375 -6.421875 "/></g></g></g><g fill="#9dc087" fill-opacity="1"><g transform="translate(175.054957, 224.953579)"><g><path d="M 8.078125 -4.125 C 8.078125 -3.882812 8.0625 -3.628906 8.03125 -3.359375 L 1.90625 -3.359375 C 1.945312 -2.597656 2.203125 -2.003906 2.671875 -1.578125 C 3.148438 -1.160156 3.722656 -0.953125 4.390625 -0.953125 C 4.941406 -0.953125 5.398438 -1.078125 5.765625 -1.328125 C 6.140625 -1.585938 6.398438 -1.929688 6.546875 -2.359375 L 7.921875 -2.359375 C 7.710938 -1.628906 7.300781 -1.03125 6.6875 -0.5625 C 6.070312 -0.101562 5.304688 0.125 4.390625 0.125 C 3.660156 0.125 3.007812 -0.0351562 2.4375 -0.359375 C 1.863281 -0.691406 1.414062 -1.15625 1.09375 -1.75 C 0.769531 -2.351562 0.609375 -3.050781 0.609375 -3.84375 C 0.609375 -4.644531 0.765625 -5.34375 1.078125 -5.9375 C 1.390625 -6.53125 1.832031 -6.988281 2.40625 -7.3125 C 2.988281 -7.632812 3.648438 -7.796875 4.390625 -7.796875 C 5.117188 -7.796875 5.765625 -7.632812 6.328125 -7.3125 C 6.890625 -7 7.320312 -6.566406 7.625 -6.015625 C 7.925781 -5.460938 8.078125 -4.832031 8.078125 -4.125 Z M 6.765625 -4.390625 C 6.765625 -4.878906 6.65625 -5.296875 6.4375 -5.640625 C 6.226562 -5.992188 5.9375 -6.257812 5.5625 -6.4375 C 5.195312 -6.625 4.789062 -6.71875 4.34375 -6.71875 C 3.695312 -6.71875 3.144531 -6.507812 2.6875 -6.09375 C 2.238281 -5.6875 1.984375 -5.117188 1.921875 -4.390625 Z M 6.765625 -4.390625 "/></g></g></g><g fill="#9dc087" fill-opacity="1"><g transform="translate(183.730115, 224.953579)"><g><path d="M 8.078125 -4.125 C 8.078125 -3.882812 8.0625 -3.628906 8.03125 -3.359375 L 1.90625 -3.359375 C 1.945312 -2.597656 2.203125 -2.003906 2.671875 -1.578125 C 3.148438 -1.160156 3.722656 -0.953125 4.390625 -0.953125 C 4.941406 -0.953125 5.398438 -1.078125 5.765625 -1.328125 C 6.140625 -1.585938 6.398438 -1.929688 6.546875 -2.359375 L 7.921875 -2.359375 C 7.710938 -1.628906 7.300781 -1.03125 6.6875 -0.5625 C 6.070312 -0.101562 5.304688 0.125 4.390625 0.125 C 3.660156 0.125 3.007812 -0.0351562 2.4375 -0.359375 C 1.863281 -0.691406 1.414062 -1.15625 1.09375 -1.75 C 0.769531 -2.351562 0.609375 -3.050781 0.609375 -3.84375 C 0.609375 -4.644531 0.765625 -5.34375 1.078125 -5.9375 C 1.390625 -6.53125 1.832031 -6.988281 2.40625 -7.3125 C 2.988281 -7.632812 3.648438 -7.796875 4.390625 -7.796875 C 5.117188 -7.796875 5.765625 -7.632812 6.328125 -7.3125 C 6.890625 -7 7.320312 -6.566406 7.625 -6.015625 C 7.925781 -5.460938 8.078125 -4.832031 8.078125 -4.125 Z M 6.765625 -4.390625 C 6.765625 -4.878906 6.65625 -5.296875 6.4375 -5.640625 C 6.226562 -5.992188 5.9375 -6.257812 5.5625 -6.4375 C 5.195312 -6.625 4.789062 -6.71875 4.34375 -6.71875 C 3.695312 -6.71875 3.144531 -6.507812 2.6875 -6.09375 C 2.238281 -5.6875 1.984375 -5.117188 1.921875 -4.390625 Z M 6.765625 -4.390625 "/></g></g></g><g fill="#9dc087" fill-opacity="1"><g transform="translate(192.405274, 224.953579)"><g><path d="M 4.8125 -7.8125 C 5.75 -7.8125 6.503906 -7.53125 7.078125 -6.96875 C 7.660156 -6.40625 7.953125 -5.585938 7.953125 -4.515625 L 7.953125 0 L 6.6875 0 L 6.6875 -4.34375 C 6.6875 -5.101562 6.492188 -5.6875 6.109375 -6.09375 C 5.734375 -6.5 5.210938 -6.703125 4.546875 -6.703125 C 3.878906 -6.703125 3.347656 -6.492188 2.953125 -6.078125 C 2.554688 -5.660156 2.359375 -5.046875 2.359375 -4.234375 L 2.359375 0 L 1.078125 0 L 1.078125 -7.671875 L 2.359375 -7.671875 L 2.359375 -6.578125 C 2.609375 -6.972656 2.945312 -7.273438 3.375 -7.484375 C 3.8125 -7.703125 4.289062 -7.8125 4.8125 -7.8125 Z M 4.8125 -7.8125 "/></g></g></g><g fill="#9dc087" fill-opacity="1"><g transform="translate(201.360276, 224.953579)"><g><path d="M 8.078125 -4.125 C 8.078125 -3.882812 8.0625 -3.628906 8.03125 -3.359375 L 1.90625 -3.359375 C 1.945312 -2.597656 2.203125 -2.003906 2.671875 -1.578125 C 3.148438 -1.160156 3.722656 -0.953125 4.390625 -0.953125 C 4.941406 -0.953125 5.398438 -1.078125 5.765625 -1.328125 C 6.140625 -1.585938 6.398438 -1.929688 6.546875 -2.359375 L 7.921875 -2.359375 C 7.710938 -1.628906 7.300781 -1.03125 6.6875 -0.5625 C 6.070312 -0.101562 5.304688 0.125 4.390625 0.125 C 3.660156 0.125 3.007812 -0.0351562 2.4375 -0.359375 C 1.863281 -0.691406 1.414062 -1.15625 1.09375 -1.75 C 0.769531 -2.351562 0.609375 -3.050781 0.609375 -3.84375 C 0.609375 -4.644531 0.765625 -5.34375 1.078125 -5.9375 C 1.390625 -6.53125 1.832031 -6.988281 2.40625 -7.3125 C 2.988281 -7.632812 3.648438 -7.796875 4.390625 -7.796875 C 5.117188 -7.796875 5.765625 -7.632812 6.328125 -7.3125 C 6.890625 -7 7.320312 -6.566406 7.625 -6.015625 C 7.925781 -5.460938 8.078125 -4.832031 8.078125 -4.125 Z M 6.765625 -4.390625 C 6.765625 -4.878906 6.65625 -5.296875 6.4375 -5.640625 C 6.226562 -5.992188 5.9375 -6.257812 5.5625 -6.4375 C 5.195312 -6.625 4.789062 -6.71875 4.34375 -6.71875 C 3.695312 -6.71875 3.144531 -6.507812 2.6875 -6.09375 C 2.238281 -5.6875 1.984375 -5.117188 1.921875 -4.390625 Z M 6.765625 -4.390625 "/></g></g></g><g fill="#9dc087" fill-opacity="1"><g transform="translate(210.035435, 224.953579)"><g><path d="M 2.359375 -6.421875 C 2.578125 -6.859375 2.894531 -7.195312 3.3125 -7.4375 C 3.726562 -7.6875 4.234375 -7.8125 4.828125 -7.8125 L 4.828125 -6.5 L 4.5 -6.5 C 3.070312 -6.5 2.359375 -5.722656 2.359375 -4.171875 L 2.359375 0 L 1.078125 0 L 1.078125 -7.671875 L 2.359375 -7.671875 Z M 2.359375 -6.421875 "/></g></g></g><g fill="#9dc087" fill-opacity="1"><g transform="translate(215.254524, 224.953579)"><g/></g></g><g fill="#9dc087" fill-opacity="1"><g transform="translate(218.990436, 224.953579)"><g><path d="M 2.625 -6.625 L 2.625 -2.09375 C 2.625 -1.726562 2.703125 -1.46875 2.859375 -1.3125 C 3.023438 -1.15625 3.304688 -1.078125 3.703125 -1.078125 L 4.640625 -1.078125 L 4.640625 0 L 3.484375 0 C 2.773438 0 2.242188 -0.160156 1.890625 -0.484375 C 1.535156 -0.816406 1.359375 -1.351562 1.359375 -2.09375 L 1.359375 -6.625 L 0.359375 -6.625 L 0.359375 -7.671875 L 1.359375 -7.671875 L 1.359375 -9.609375 L 2.625 -9.609375 L 2.625 -7.671875 L 4.640625 -7.671875 L 4.640625 -6.625 Z M 2.625 -6.625 "/></g></g></g><g fill="#9dc087" fill-opacity="1"><g transform="translate(224.083594, 224.953579)"><g><path d="M 4.421875 0.125 C 3.703125 0.125 3.050781 -0.0351562 2.46875 -0.359375 C 1.882812 -0.691406 1.425781 -1.15625 1.09375 -1.75 C 0.769531 -2.351562 0.609375 -3.050781 0.609375 -3.84375 C 0.609375 -4.632812 0.773438 -5.328125 1.109375 -5.921875 C 1.453125 -6.523438 1.914062 -6.988281 2.5 -7.3125 C 3.09375 -7.632812 3.753906 -7.796875 4.484375 -7.796875 C 5.210938 -7.796875 5.867188 -7.632812 6.453125 -7.3125 C 7.046875 -6.988281 7.507812 -6.53125 7.84375 -5.9375 C 8.1875 -5.34375 8.359375 -4.644531 8.359375 -3.84375 C 8.359375 -3.050781 8.179688 -2.351562 7.828125 -1.75 C 7.484375 -1.15625 7.007812 -0.691406 6.40625 -0.359375 C 5.8125 -0.0351562 5.148438 0.125 4.421875 0.125 Z M 4.421875 -1 C 4.878906 -1 5.304688 -1.101562 5.703125 -1.3125 C 6.109375 -1.53125 6.4375 -1.851562 6.6875 -2.28125 C 6.9375 -2.707031 7.0625 -3.226562 7.0625 -3.84375 C 7.0625 -4.46875 6.9375 -4.992188 6.6875 -5.421875 C 6.445312 -5.847656 6.128906 -6.164062 5.734375 -6.375 C 5.347656 -6.582031 4.925781 -6.6875 4.46875 -6.6875 C 4 -6.6875 3.570312 -6.582031 3.1875 -6.375 C 2.800781 -6.164062 2.488281 -5.847656 2.25 -5.421875 C 2.019531 -4.992188 1.90625 -4.46875 1.90625 -3.84375 C 1.90625 -3.21875 2.019531 -2.691406 2.25 -2.265625 C 2.476562 -1.835938 2.78125 -1.519531 3.15625 -1.3125 C 3.539062 -1.101562 3.960938 -1 4.421875 -1 Z M 4.421875 -1 "/></g></g></g><g fill="#9dc087" fill-opacity="1"><g transform="translate(233.038595, 224.953579)"><g><path d="M 10.296875 -7.8125 C 10.898438 -7.8125 11.429688 -7.6875 11.890625 -7.4375 C 12.359375 -7.1875 12.726562 -6.816406 13 -6.328125 C 13.269531 -5.835938 13.40625 -5.234375 13.40625 -4.515625 L 13.40625 0 L 12.15625 0 L 12.15625 -4.34375 C 12.15625 -5.101562 11.960938 -5.6875 11.578125 -6.09375 C 11.203125 -6.5 10.691406 -6.703125 10.046875 -6.703125 C 9.390625 -6.703125 8.863281 -6.488281 8.46875 -6.0625 C 8.070312 -5.644531 7.875 -5.035156 7.875 -4.234375 L 7.875 0 L 6.625 0 L 6.625 -4.34375 C 6.625 -5.101562 6.429688 -5.6875 6.046875 -6.09375 C 5.671875 -6.5 5.160156 -6.703125 4.515625 -6.703125 C 3.859375 -6.703125 3.332031 -6.488281 2.9375 -6.0625 C 2.550781 -5.644531 2.359375 -5.035156 2.359375 -4.234375 L 2.359375 0 L 1.078125 0 L 1.078125 -7.671875 L 2.359375 -7.671875 L 2.359375 -6.5625 C 2.609375 -6.96875 2.941406 -7.273438 3.359375 -7.484375 C 3.785156 -7.703125 4.257812 -7.8125 4.78125 -7.8125 C 5.414062 -7.8125 5.976562 -7.664062 6.46875 -7.375 C 6.96875 -7.082031 7.34375 -6.660156 7.59375 -6.109375 C 7.800781 -6.648438 8.148438 -7.066406 8.640625 -7.359375 C 9.140625 -7.660156 9.691406 -7.8125 10.296875 -7.8125 Z M 10.296875 -7.8125 "/></g></g></g><g fill="#9dc087" fill-opacity="1"><g transform="translate(247.450551, 224.953579)"><g><path d="M 4.421875 0.125 C 3.703125 0.125 3.050781 -0.0351562 2.46875 -0.359375 C 1.882812 -0.691406 1.425781 -1.15625 1.09375 -1.75 C 0.769531 -2.351562 0.609375 -3.050781 0.609375 -3.84375 C 0.609375 -4.632812 0.773438 -5.328125 1.109375 -5.921875 C 1.453125 -6.523438 1.914062 -6.988281 2.5 -7.3125 C 3.09375 -7.632812 3.753906 -7.796875 4.484375 -7.796875 C 5.210938 -7.796875 5.867188 -7.632812 6.453125 -7.3125 C 7.046875 -6.988281 7.507812 -6.53125 7.84375 -5.9375 C 8.1875 -5.34375 8.359375 -4.644531 8.359375 -3.84375 C 8.359375 -3.050781 8.179688 -2.351562 7.828125 -1.75 C 7.484375 -1.15625 7.007812 -0.691406 6.40625 -0.359375 C 5.8125 -0.0351562 5.148438 0.125 4.421875 0.125 Z M 4.421875 -1 C 4.878906 -1 5.304688 -1.101562 5.703125 -1.3125 C 6.109375 -1.53125 6.4375 -1.851562 6.6875 -2.28125 C 6.9375 -2.707031 7.0625 -3.226562 7.0625 -3.84375 C 7.0625 -4.46875 6.9375 -4.992188 6.6875 -5.421875 C 6.445312 -5.847656 6.128906 -6.164062 5.734375 -6.375 C 5.347656 -6.582031 4.925781 -6.6875 4.46875 -6.6875 C 4 -6.6875 3.570312 -6.582031 3.1875 -6.375 C 2.800781 -6.164062 2.488281 -5.847656 2.25 -5.421875 C 2.019531 -4.992188 1.90625 -4.46875 1.90625 -3.84375 C 1.90625 -3.21875 2.019531 -2.691406 2.25 -2.265625 C 2.476562 -1.835938 2.78125 -1.519531 3.15625 -1.3125 C 3.539062 -1.101562 3.960938 -1 4.421875 -1 Z M 4.421875 -1 "/></g></g></g><g fill="#9dc087" fill-opacity="1"><g transform="translate(256.405552, 224.953579)"><g><path d="M 2.359375 -6.421875 C 2.578125 -6.859375 2.894531 -7.195312 3.3125 -7.4375 C 3.726562 -7.6875 4.234375 -7.8125 4.828125 -7.8125 L 4.828125 -6.5 L 4.5 -6.5 C 3.070312 -6.5 2.359375 -5.722656 2.359375 -4.171875 L 2.359375 0 L 1.078125 0 L 1.078125 -7.671875 L 2.359375 -7.671875 Z M 2.359375 -6.421875 "/></g></g></g><g fill="#9dc087" fill-opacity="1"><g transform="translate(261.624641, 224.953579)"><g><path d="M 2.359375 -6.421875 C 2.578125 -6.859375 2.894531 -7.195312 3.3125 -7.4375 C 3.726562 -7.6875 4.234375 -7.8125 4.828125 -7.8125 L 4.828125 -6.5 L 4.5 -6.5 C 3.070312 -6.5 2.359375 -5.722656 2.359375 -4.171875 L 2.359375 0 L 1.078125 0 L 1.078125 -7.671875 L 2.359375 -7.671875 Z M 2.359375 -6.421875 "/></g></g></g><g fill="#9dc087" fill-opacity="1"><g transform="translate(266.84373, 224.953579)"><g><path d="M 4.421875 0.125 C 3.703125 0.125 3.050781 -0.0351562 2.46875 -0.359375 C 1.882812 -0.691406 1.425781 -1.15625 1.09375 -1.75 C 0.769531 -2.351562 0.609375 -3.050781 0.609375 -3.84375 C 0.609375 -4.632812 0.773438 -5.328125 1.109375 -5.921875 C 1.453125 -6.523438 1.914062 -6.988281 2.5 -7.3125 C 3.09375 -7.632812 3.753906 -7.796875 4.484375 -7.796875 C 5.210938 -7.796875 5.867188 -7.632812 6.453125 -7.3125 C 7.046875 -6.988281 7.507812 -6.53125 7.84375 -5.9375 C 8.1875 -5.34375 8.359375 -4.644531 8.359375 -3.84375 C 8.359375 -3.050781 8.179688 -2.351562 7.828125 -1.75 C 7.484375 -1.15625 7.007812 -0.691406 6.40625 -0.359375 C 5.8125 -0.0351562 5.148438 0.125 4.421875 0.125 Z M 4.421875 -1 C 4.878906 -1 5.304688 -1.101562 5.703125 -1.3125 C 6.109375 -1.53125 6.4375 -1.851562 6.6875 -2.28125 C 6.9375 -2.707031 7.0625 -3.226562 7.0625 -3.84375 C 7.0625 -4.46875 6.9375 -4.992188 6.6875 -5.421875 C 6.445312 -5.847656 6.128906 -6.164062 5.734375 -6.375 C 5.347656 -6.582031 4.925781 -6.6875 4.46875 -6.6875 C 4 -6.6875 3.570312 -6.582031 3.1875 -6.375 C 2.800781 -6.164062 2.488281 -5.847656 2.25 -5.421875 C 2.019531 -4.992188 1.90625 -4.46875 1.90625 -3.84375 C 1.90625 -3.21875 2.019531 -2.691406 2.25 -2.265625 C 2.476562 -1.835938 2.78125 -1.519531 3.15625 -1.3125 C 3.539062 -1.101562 3.960938 -1 4.421875 -1 Z M 4.421875 -1 "/></g></g></g><g fill="#9dc087" fill-opacity="1"><g transform="translate(275.798732, 224.953579)"><g><path d="M 11.296875 -7.671875 L 8.90625 0 L 7.59375 0 L 5.734375 -6.09375 L 3.890625 0 L 2.578125 0 L 0.171875 -7.671875 L 1.46875 -7.671875 L 3.234375 -1.234375 L 5.140625 -7.671875 L 6.4375 -7.671875 L 8.296875 -1.21875 L 10.03125 -7.671875 Z M 11.296875 -7.671875 "/></g></g></g></svg>